<?xml version="1.0" encoding="UTF-8"?>
<svg id="Capa_2" data-name="Capa 2" xmlns="http://www.w3.org/2000/svg" xmlns:xlink="http://www.w3.org/1999/xlink" viewBox="0 450 1000 1000">
	<defs>
		<style>
			.cls-1 {
			fill: #0e2a36;
			}

			.cls-2 {
			filter: url(#drop-shadow-1);
			
			}

			.cls-3 {
			fill: #f9fffd;
			}
		</style>
		<filter id="drop-shadow-1" x="134" y="510" width="820" height="908" filterUnits="userSpaceOnUse">
			<feOffset dx="4" dy="4"/>
			<feGaussianBlur result="blur" stdDeviation="2"/>
			<feFlood flood-color="#000" flood-opacity=".55"/>
			<feComposite in2="blur" operator="in"/>
			<feComposite in="SourceGraphic"/>
		</filter>
	</defs>
	<g id="Capa_1-2" data-name="Capa 1" width="2000" height="2000">
		<rect class="cls-1" width="2000" height="2000"/>
		<g class="cls-2" width="2000" height="2000">
			<path class="cls-3" d="M606.75,578.47c-.04.68-2.64,4.29-.01,4.49,11.41-33.32-11.33-54.51-38.79-67.74-1.36-.66-2.76.64-2.19-2.26,34.66,3.21,66.42,23.33,63,61.99,1.06.4,1.99-3.29,1.99-3.49v-18c0-1.68-5.27-11.24-6.59-13.41-3.28-5.43-7.54-10.11-11.41-15.08,14.11,5.89,27.72,18.96,29.74,34.75,4.06,31.67-23.6,42.92-49.74,47.23l4.99-5.49c.15-.77-.91-.6-1.5-.51-17.1,2.65-37.79,12.13-54.23,14.77-12.14,1.95-43.91-10.9-59.78-12.74-9.06-1.05-21.19,1.48-28.47-5.02l4.51,5.98,8.47,5.01c-9.62,1.45-14.98,9.31-15.88,18.62-.68,6.95,2.19,16.45,1.82,22.97-.06,1.11-4.39,7.92-4.92,12.93-3.06,29.27-1.75,77.52,18.01,100.97,3.02,3.59,6.95,6.01,9.98,9.51-8.66,2.79-19.59,5.75-26.5-1.98-1.73,5.05,5.65,9.26,10.09,9.9,22.91,3.31,35.79-24.37,57.42-25.92-4.54-7.27-6.21-16.72,1.99-21.99-1.1,3.13-2.27,13.81,1.67,14.89,8.72-3.71,11.08,1.94,16.61,4.36s9.68-4.33,15.51-5.07c2.65-.34,5.02,1.01,6.54.67,4.43-.99,1.77-8.81,3.19-11.85,4.2,3.23,5.31,7.98,4.07,13.07-.58,2.39-2.47,3.61-2.56,5.92,18.43,1.91,28.53,20.19,46.19,25.31,10.1,2.92,21.53.67,22.79-11.3-2.01,1.18-2.08,3.41-4.63,4.86-5.51,3.13-13.31,2.08-19.17.43-.95-.27-5.93-1.47-4.19-3.28,14.5-6.55,21.78-24.4,25.32-39.19,3.73-15.57,6.63-61.31,2.02-75.67-.76-2.38-2.93-3.59-3.33-5.67-2.38-12.35,5.81-24.44-4.19-36.81-3.03-3.75-6.21-4.1-8.83-7.66,9.47-3.74,17.67-11.97,23.01-20.57l1.29-.29c14.96,4.38,24.24,15.56,24.53,31.38,0,.41-.48,4.4-1.83,2.98-4.35-6.1-6.44-14.19-12.98-18.51,1.95,6.24,7.25,11.09,9.04,17.45,4.39,15.64-8.49,40.28-10.06,56.55,7.83-1.01,13.92,6.4,14.92,13.59,1.27,9.22-4.51,46.66-10.38,53.44-2.23,2.57-7.66,4.44-8.33,6.66-1.44,4.76,1.61,18.84,1.85,24.77.52,12.97-.36,25.73-2.05,38.54l-5.12-14.36-1.88-1.12c-.2,1.76,2.01,4.76,2.01,5.99v19c0,.88-3.81,12.73-4.51,14.49-2.59,6.52-6.7,12.93-12.48,17.01,1.58-8.18,3.78-15.91,2.87-24.38-.11-1.03-.4-4.7-1.87-4.61-.92,7.78-1.12,14.62-3.29,22.21-4.53,15.86-17.18,27.89-31.23,35.77l7.05-13.96-.53-3.03c-4.78,13.71-15.84,24.18-29.33,29.17-1.75.65-4.92,2.14-6.68,1.32,3.86-3.64,7.82-8.13,8.99-13.5-11.49,11.03-23.29,16.52-39.21,11.72-10.23-3.09-19.17-10.03-25.29-18.71.24,5.79,5.24,10.68,8.5,14.99-14.91-5.63-30.52-13.15-40.97-25.52-12.97-15.37-13.09-33.28-14.04-52.47-1.74-.24-.95,2.27-.99,3.48-.53,13.66-2.13,25.21,2.99,38.51-16.65-12.51-21.16-35.24-18-54.99l-4.49,11.99c-5.43-20.67-.76-42.25-1.65-63.34-3.96-3.23-7.9-4.7-10.35-9.65-3.37-6.79-8.29-36.46-8.11-44.34.23-10.22,4.4-18.83,15.63-19.19-4.54-17.6-10.38-36.24-12.72-54.28-.85-6.58.85-9.87.64-14.65-.23-5.21-5.21-13.44-3.92-19.56,6.86,6.67,15.95,13.38,26,12.5-22.39-4.33-32.93-31.64-23.1-51.07.54-1.06-.52-1.89,2.09-1.42.26,8.84,4.76,17.83,11.99,23-4.9-9.74-5.56-20.71-1.98-31,2.41,1.85,2.96,4.98,5.01,7.47,4.27,5.19,14.23,10.05,20.97,10.51l-8.49-4.99c-7.64-6.57-12.15-16.2-7.49-25.99,2.17,1.62,2.88,4.34,5.62,5.86,11.2,6.2,40.65-1.61,54.85-.85,21.51,1.15,49.13,11.65,58.7,32.3l5.8,17.69c-.11-22.07-10.55-39.17-31.01-47.48-19.76-8.02-41.2-7.41-61.98-4.53,2.43-2.78,7.89-4.66,11.47-6.02,36.52-13.76,95.13-12.73,116.33,25.72,1.36,2.46,5.2,10.54,5.2,12.8,0,5.55.33,11.52,0,17ZM586.75,578.97v-14.5c0-3.57-4.24-12.4-6.19-15.81-8.96-15.65-28-27.01-45.82-28.19,17.29,3.56,33.64,15.14,42.83,30.18,5.32,8.7,5.38,15.29,7.19,24.81.28,1.46,0,3.11,1.99,3.51ZM546.74,591.96c8.44-31.41-29.42-45.72-53.98-47.99-.24,1.44,1.76,1.4,2.79,1.68,19.88,5.54,37.99,11.01,48.07,30.94l3.12,15.36ZM534.74,592.97c-2.82-27.7-31.11-39.38-55.99-37.99l16.95,3.53c9.27,2.9,22.73,11.52,29.01,18.99,4.13,4.91,6.1,10.6,10.02,15.47ZM500.75,592.96c-12.24-14.8-33.24-13.45-50-18.98,1.59,2.62,5.9,3.63,8.75,4.74,8.81,3.44,17.83,4.67,26.46,7.54,5.21,1.73,9.83,4.48,14.78,6.71ZM438.74,711.96c.08-8.46.92-21.15-7.67-25.9-1.39-.77-2.19-.95-3.66-.18-.99.78-1.38,3.39-1.53,4.69-.68,5.77,4.12,40.19,6.37,45.41.43,1.01,2.71,4.57,3.49,3.99,2.97-11.47-1.91-23.31-.98-34.99l3.98,6.99ZM645.76,739.97c1.53,1.15,4.31-7.74,4.55-8.94,1.66-8.32,6.13-35.55,4.4-42.5-.86-3.48-2.96-3-5.7-1.8-7.54,3.31-6.4,19.18-7.25,26.24l4.98-6.99c-.11,11.33-3.96,22.8-.98,33.99ZM571.75,790.96l-22.99-17.99c-.44,1.88,1.04,2.38,1.99,3.5,5.15,6.14,13.46,11.82,21,14.49ZM509.76,789.96c4.31-.51,9.36-4.01,12.91-6.58,1.35-.98,10.46-7.88,9.08-9.41l-21.98,15.99ZM592.74,787.98c-7.94-2.36-13.51-9.21-19.98-14.01-1.62,1.71,9.32,9.9,10.68,10.81,1.92,1.28,4.13,2.94,6.28,3.73.93.34,3.26,1.31,3.03-.53ZM488.76,788.96c1.76.32,2.89-.48,4.33-1.16,1.92-.9,16.64-10.64,14.66-12.83l-18.98,13.99ZM501.25,801.97c-5.67.6-13.07,0-19,0-.57,0-4.37-2.64-4.49-.01,6.75,2.34,13.78,4.94,20.99,5.02l-3,2.98c7.49-.3,15.29-1.48,21.99-4.99l-5.48,9.01c5.3-.43,12.12-10.89,15.19-11.81,2.47-.73,20.63-.64,23.74-.15,5.88.93,11.95,12.64,19.56,12.93l-5.99-8.99c6.06,3.44,16.55,5.5,23.28,3.97.76-.17.78-1.68,1.47-1.9,7.07-2.25,15.55-3.99,21.24-9.06-14.51,5.29-31.74,3.54-46.21-1.3-11.6-3.88-18.17-12.56-30.77-8.19-10.95,3.8-19.66,11.12-32.52,12.48ZM555.74,867.96c5.4-12.01,9-36.27-1.47-46.01-1.1-1.02-1.73-2.36-3.52-1.97,10.09,13.83,7.31,29.41,4.44,44.94-.19,1.04-1.32,3.28.55,3.04ZM535.74,852.96c-2.44-8.72-1.63-16.71-1.99-25.51-.05-1.21.75-3.72-.99-3.48-1.44,8.32-1.7,16.63.71,24.78.34,1.16.82,4.23,2.27,4.21ZM517.75,848.47c-.57-4.23,0-10.46,0-15,0-1.1,3.67-6.64,1.01-7.49-4.86,12.34-4.19,28.86,3.55,39.93.28.4,2.01,2.86,2.44,1.56-1.9-5.49-6.26-13.42-7.01-18.99ZM607.74,851.96c3.09-7.17,4.05-14.31,2-21.99-2.36,1.25.03,5.81-.06,8.33-.12,3.53-1.74,7.21-2.48,10.61-.22,1.02-1.34,3.26.54,3.04ZM494.74,875.97l-10.75-19.74-5.23-22.26c-1.57,15.92,4.8,30.95,15.98,41.99ZM578.76,868.97c7.82-9.14,9.37-22.51,6.98-33.99-2.69,1.68.01,6.92-.09,9.38-.36,8.46-3.86,16.86-6.89,24.61Z"/>
			<path class="cls-3" d="M565.73,1234.97l-16.98,11.98c5.84,2.26,11.97,4.24,17.67,6.84,5.05,2.3,18.82,10.65,22.92,11.15,6.69.82,9.54-4.22,14.69-6.2,11.9-4.58,27.69,2.69,31.44,15.01,2.07,6.82-.76,12.82,5.37,17.63,5.54,4.35,10.72,3.85,16.93,1.1,1.85-.82,7.04-6.4,6.99-1.04-.03,4.02-9.97,9.93-13.58,10.47-6.26.94-10.69-2.89-16.92-3.01-12.26-.25-19.04,10.22-33.43-.52-9.06-6.76-8.03-13.14-12.88-21.12-3.83-6.3-24.39-15.14-31.94-18.06-3.63-1.4-20.64-7.31-22.96-6.49-1.62.57-6.08,3.67-7.31,5.25l7-1.98c-3.12,13.62,7.76,29.33,17.99,37.5,10.83,8.65,27.05,6.36,30.57,23.43,7.44,36.08-45.9,31.07-41.47-3.36.76-5.93,4.32-9.56,2.44-16.62-1.38-5.16-20.68-27.77-25.53-24.95-.11.06.84,1.15.06,2.47-7.04,11.87-41.87,37.47-55.24,40.83-8.24,2.07-16.19-2.28-13.37-11.37,1.81-5.81,13.08-7.11,18.51-9.48,15.75-6.87,29.59-17.34,42.54-28.46.35-.16,2.87,6.08,5.5,4.99-1.24-2.53-4.73-3.6-4-6.98l5-1.02-1.01-1.98,8-2c-6.63-.16-11.29,1.6-17.33-2.17-16.81-10.52-39.13-14.78-58.43-21.57-21.08-7.41-45.85-15-62.23-30.26,29.85,5.75,58.61,16.43,88.18,23.31,20.72,4.82,42.09,6.67,62.26,13.66,13.67-5.98,23.68-17.24,35.24-25.8,19.76-14.65,43.87-32.74,64.59-45.41,5.58-3.41,7.65-5.86,13.75-1.29,7.23,5.41,16.55,15.85,5.99,23.03l-74.28,51.72c-5.72,2.86-12.63-4.32-14.75-9.22ZM641.75,1174.98l-73.09,50.45c-2.43,3.1,5.46,10.11,7.59,12.53,1.35-2.83-8.17-8.72-6.36-11.87l71.86-51.12ZM511.61,1248.82c2.24-4.5,1.59-9.29-4.35-8.95-8.71.5-3.35,11.88,4.35,8.95ZM607.49,1265.19c-10.11,1.74-12.5,13.11-7.57,21.11,5.59,9.06,20.4,12.87,27.27,3.6,9.08-12.24-6.89-26.91-19.7-24.71ZM569.39,1310.33c-13.63-13.25-31.64,1.65-19.05,17.55,13.16,16.62,35.29-1.76,19.05-17.55Z"/>
			<path class="cls-3" d="M352.75,989.96c26.38,5.01,26.04,48.5,5.3,60.81-10.37,6.15-40.02,9.78-52.93,11.07-1.8.18-3.58.22-5.37.13-.79-5.79,4.94-9.56,5.01-15.5-2.06-30.99,2.73-65.48.04-96.04-.23-2.56-.65-4.86-1.84-7.16-1.45-2.78-6.6-5.37-4.75-8.33.92-.92,2.05-1.41,3.29-1.74,9.7-2.53,34.95-5.12,44.8-4.27,11.09.95,18.21,6.98,21.41,17.59,5.19,17.24.31,33.68-14.95,43.44ZM326.76,984.97c7.81-1.78,13.66-1.7,18.24-9.25,4.02-6.64,4.29-24.43-1.72-29.78-4.06-3.62-12.48-3.77-16.4-.34l-.12,39.37ZM326.75,1043.97c17.79.09,24.88-6.59,24.04-24.55-.74-15.91-7.87-22.46-24.04-18.45v43Z"/>
			<path class="cls-3" d="M727.75,1040.47c.92,6.57,4.95,7.84,8.86,12.17.54,1.49,0,2.69-1.51,3.17-2.4.76-26.73-2.15-30.75-2.95-.97-.19-3.4-.43-3.65-1.53-.9-4.46,3.24-6.8,4.57-10.34,3.49-9.34,2.3-75.53,1.53-89.55-.21-3.89-.74-10.94-1.49-14.51-1.19-5.72-6.96-8.09-6.55-13.94,26.19,4.8,65.43.74,72.55,33.94,2.68,12.47,2.35,30.07-8.53,38.57l-10.02,5.47c8.74.57,11.61,12.75,13.71,19.8,2.57,8.63,4.35,27.67,9.74,33.26,1.74,1.8,5.29,2.76,5.49,5.42.13,1.7-.74,3.53-2.44,3.64-2.84.17-22.11-3.65-23.94-5.16-8.17-6.73-9.58-29.61-12.24-39.76-2.34-8.89-4.56-16.07-15.32-16.18,1.2,11.94-1.62,26.95,0,38.5ZM727.75,988.97c20.8,2.86,23.38-8.87,22.04-26.54-1.1-14.49-7.38-20.34-22.04-20.46v47Z"/>
			<path class="cls-3" d="M816.51,938.23c53.62-7.87,59.66,73.75,48.96,108.96-12.69,41.73-60.65,28.6-72.76-5.68-8.67-24.55-11.78-98.06,23.8-103.28ZM823.47,954.17c-7.63,1.71-9.62,13.95-10.57,20.44-2.32,15.84-3.29,62.59,5.02,75.7,5.93,9.36,18.06,9.91,22.86-.81,6.37-14.22,4.99-61.67,1.51-77.56-2.06-9.38-7.21-20.36-18.82-17.76Z"/>
			<path class="cls-3" d="M429.62,1015.1l-25.66,2.09c-.66,10.3-8,20.96.66,29.47.17,1.12-.97,2.38-1.88,2.8-4.56,2.1-17.87.38-23.49,2.6l-3.5-1.61c2.33-5.33,6.17-7.87,8.29-13.69,6.96-19.13,12.1-51.65,16.41-72.59,1.43-6.97,7.07-28.04,5.03-33.36-1-2.61-5.38-6.04-3.3-8.9,2.26-3.1,28.88-1.95,34.08-3.96,6.33,2.28-1.22,8.13-1.43,12.6-.1,2.1,1.03,6.02,1.4,8.45,3.85,24.97,11.49,69.48,19.59,92.41,1.54,4.38,10.63,13.41,4.43,14.56l-29.52.53c-2.88-1.9,1.31-5.02,1.82-7.23,1.69-7.27-1.28-17.01-2.92-24.17ZM426.63,1001.85l-9.87-47.88-8.98,48.44,2.02,1.15c5.53-1.63,11.51.67,16.84-1.71Z"/>
			<path class="cls-3" d="M289.59,1064.83c-5.6-.75-28.64,7-31.9,4.7-3.18-2.24,2.63-9.66,2.68-13.88.03-2.36-1.93-15.16-2.83-16.97-.59-1.19-.67-1.63-2.19-1.67-3.11-.07-21.84,4.36-23.09,6.96s-3.02,19.28-2.3,22.29c.64,2.7,5.12,5.88,1.55,9.46-1.12,1.12-20.24,5.4-22.97,5.61-1.28.1-1.8.92-2.73-.96-.69-4.27,3.21-6.6,4.84-10.03,12.78-27.04,12.5-76.49,22.84-106.15,1.67-6.39-1.23-10.74-4.54-15.74.51-1.1,1.5-1.75,2.54-2.27,3.37-1.68,26.56-5.97,30.93-6.17,7.09-.32.89,7.56.41,10.5-.41,2.54-.05,5.14.21,7.67,2.35,22.35,10.85,58.08,16.59,80.4,1.12,4.34,2.95,12.45,4.93,16.07,2.14,3.93,7.95,5.56,5.05,10.15ZM235.75,1026.96c2.97-.13,18.3-1.48,18.92-3.61l-8.94-47.37-9.98,50.99Z"/>
			<path class="cls-3" d="M938.75,999.97c-11.36,2.52-10.94-11.69-16.16-19.34-12.74-18.64-31.51-4.57-17.66,17.66,10.05,16.13,28.15,26.19,35.58,45.42,10.97,28.38-6.26,60.24-39.12,44.12-2.96-1.45-11.55-8.57-12.29-8.71-.51-.1-9.36,4.15-9.36.36v-38c0-1.85,4.11-2.06,6.06-.05,1.56,1.6,6.02,15.87,8.75,20.25,4.79,7.7,18,20.97,25.66,9.27,11.4-17.41-17.07-39.57-26.44-51.49-10.3-13.11-17.05-25.47-14.92-42.86,1.83-14.93,15.45-23.46,29.94-21.16,7.13,1.13,13.57,6.31,18.67,7.33,2.28.45,11.28-.53,11.28,2.72v34.5Z"/>
			<path class="cls-3" d="M652.75,1033.97c9.51,1.46,18.97,1.88,26.52-4.98,3.24-2.94,4.8-8.27,9.47-8.02-.13,4.61.14,27.59-3.63,28.86-1.94.65-8.29.22-10.85.13-11.12-.41-24.75-1.87-36-3-3.04-.3-13.44-.98-14.59-2.69-2.19-3.23,2.75-5.72,4.1-7.8,2.17-3.33,2.8-12.56,3.04-16.96,1.27-23.02,2.04-60.53-.06-83.03-.2-2.11-.81-5.56-1.49-7.51-1.54-4.38-6.01-6.62-5.41-11.37l3.37-1.69c17.73,3.21,36.26,2.25,53.98,5.11,1.31.21,2.52.61,3.59,1.41,2.12,2.14,1.9,23.18,1.97,27.52-4.59.51-6.41-4.99-9.1-7.39-2.53-2.26-6.71-4.99-9.92-6.08-3.89-1.32-15.28-4.69-15.68,1.1l1.17,36.41c1.44,2.19,11.5,2.36,14.09,2.01,2.07-.28,10.45-8.31,10.45-3.55v26.5c-5.99.87-5.69-5.58-11.73-6.77-1.89-.37-9.21-1.08-11.01-1.04-1.23.03-1.54.38-2.26,1.31v41.5Z"/>
			<path class="cls-3" d="M200.75,989.97c-13.52,5.36-7.72-14.16-19.72-16.8-10.79-2.37-16.51,6.76-18.79,15.79-3.77,14.92-4.34,59.89-.64,74.66,5.05,20.18,23.2,11.47,28.62-3.68,2.92-8.15-.09-16.04,12.53-13.97v17.5c0,10.59-18.16,26.7-28.76,28.24-28.13,4.09-35.7-18.68-37.28-42.2-1.99-29.65-.23-92.08,41.55-92.62,3.71-.05,8.42,2.01,11.65,1.55,1.49-.21,10.84-7.56,10.84-2.97v34.5Z"/>
			<path class="cls-3" d="M501.75,1027.97c1,1.49,15.99.09,18.04-.47,8.15-2.2,13.96-16.99,16.48-17.52,1.11-.24,2.02.68,2.32,1.65.97,3.1-.81,26.27-2.03,29.65-.4,1.11-1.04,1.49-2.04,1.96l-61.65,1.63c-3.16-1.91,7.55-12.95,5.88-17.41-1.68-30.3,2.28-63.03.05-93.03-.2-2.76-.45-5.9-1.54-8.46-1.48-3.46-8.44-7.51-2-10l30.84-.84,1.66,1.37c.66,2.23-5.99,7.44-5.99,11.97v99.5Z"/>
			<path class="cls-3" d="M583.25,913.97l1.58,2.52c.26,3.13-3.77,4.91-5.28,7.78-1.53,2.9-2.08,6.99-2.79,10.21l.13,93.85.8,1.2c9.11,1.43,17.4.87,24.11-6.02,3.73-3.83,5.94-13.05,12.03-11.12,2.79,2.02-2.69,25.22-2.24,29.9-2.18,3.9-5.86,1.59-9.28,1.62-17.48.15-35.22.4-52.55-.44-4.56-4.6,1.19-5.95,3.2-9.81,1.2-2.29,1.62-4.6,1.84-7.16,2.7-30.57-2.1-65.05-.04-96.04.6-5.68-6.69-9.71-7.07-14.01-.34-3.91,1.19-2.49,3.57-2.49h32Z"/>
			<path class="cls-3" d="M713.51,1082.23c50.46-7.31,40.79,95.17-6.44,71.92-22.68-11.16-21.37-67.89,6.44-71.92ZM715.49,1092.22c-9.58,2.49-9.39,27.37-8.73,35.23,2.01,23.89,22.07,26.79,24.02,4.05.91-10.59,2.57-43.93-15.29-39.28Z"/>
			<path class="cls-3" d="M425.4,861.32c.9.84,5.17,6.83,4.34,7.64-3.37-1.23-5.72-2.59-9.51-2.98-19.58-2-41.45,9.19-55.48,21.98,22.86-3.46,47.12-7.96,69.99-2.98l-2.73,1.74c-35.54,1.38-73.69,12.93-108.72,14.29-12.42.48-23.11-1.79-21.54-16.54,2.08-19.53,31.02-6.6,10.01,5,2.81,3.68,6.16,3.71,10.46,3.49,17.99-.91,37.1-16.96,52.85-25.16,12.46-6.49,38.22-17.69,50.32-6.48Z"/>
			<path class="cls-3" d="M764.98,876.21c3.96-3.94,12.51-1.01,14.67,4.36,4.51,11.22-3.09,20.09-14.41,20.38l-118.48-14.99c-.2-1.45,2.72-1.53,3.77-1.71,21.89-3.69,44.59.11,66.22,3.71-16.83-14.39-40.4-28.89-62.99-18.99,3.25-15.16,23.8-13.44,35.27-9.78,21.79,6.96,53.95,37.28,76.16,33.72,2.41-.39,4.02-1.65,5.54-3.44-5.09-1.12-9.97-9.06-5.75-13.26Z"/>
			<path class="cls-3" d="M469.75,1101.97c-4.55-1.73-7.51-6.72-12.73-7.77-3.85-.78-8.33.08-12.27-.23v18.5c2.78,2.76,9.79,1.59,13.24.24,1.94-.76,2.51-3.02,4.76-2.74v16.5l-2,1.01c-3.34-5.14-9.74-3.69-15.06-3.07-1.65,1.15-1.61,20.06.73,20.6,5.89.28,10.04.24,15.27-2.61,3.82-2.08,5.86-6.43,10.06-6.43,1.07.72-1.19,17.86-3.49,20h-42l-1.5-2.49c4.98-2.7,5.58-5.58,6.03-10.98.97-11.46,1.22-35.84-.03-47.04-.71-6.36-4.95-8.53-5.05-9.06-.23-1.18.66-3.43,1.55-3.43h41l1.5,1.5v17.5Z"/>
			<path class="cls-3" d="M524.75,1102.97c-8.61,1.72-6.77-4.01-10.45-8.05-4.59-5.04-14.61-4.03-14.6,3.55,0,8.1,15.9,13.49,21.39,18.66,18.56,17.5,2.82,44.95-23.33,38.33-5.78-1.46-3.7-4.26-10.48,1.5-3.1-.74-1.36-10.68-1.49-13.55-.16-3.87-3.44-20.35,5.56-13.54,1.59,1.21,3.12,8.97,6.4,12.31,6.1,6.2,17.05,5.16,17.02-4.72-.04-15.79-29.71-17.1-30.09-36.98-.3-15.84,13.06-19.46,26.46-18.41,2.33.18,5.14,1.86,7.15,1.78,2.6-.1,4.37-3.56,6.45-.39v19.5Z"/>
			<path class="cls-3" d="M525.47,670.26c2.09,1.67,4.27,8.85,4.83,11.65,2.97,14.85.27,29.68-3.57,44.05-1.74.23-.94-2.27-.99-3.48-.47-11.86.04-23.75-2.01-35.51h-2.99s-.01,7-.01,7l-10.39-4.93c-7.2,13.57-18.19,12.82-26.04.22l-16.56,4.7,10.09-11.4,15.9-4.58c-12.41-.92-24.14-3.94-32.98,6.99-.4-25.63,22.15-22.52,40.33-19.84,3.38.5,23.08,4.09,24.38,5.13Z"/>
			<path class="cls-3" d="M557.75,1093.97c-3.56-.13-7.7.1-11,1.5-3.62,1.54-4.63,5.39-8.48,5.5-1.69-1.09-1.16-1.55-1.11-3,.07-1.82,2.09-14.46,2.73-14.86h50.23c2.83.96,3.71,18.01,2.62,18.85-3.95-.82-5.17-4.8-8.98-6.5s-7.08-1.71-11.01-1.49v53.5c0,2.81,8.52,4.82,3.5,8.5h-21c-.39,0-1.51-1.3-2.5-1.01v-1.47c1.54-1.36,5-5.09,5-7.02v-52.5Z"/>
			<path class="cls-3" d="M356.25,1082.97l1.5,2.49c-.82,1.25-2.95,2.32-3.51,3.54-1.38,3,5.39,18.06,7.32,21.67.36.67,1.54,2.78,2.19,2.3.85-5.7,11.59-19.59,9.9-24.38-.5-1.43-2.78-1.33-2.94-2.17-.4-1.03.74-3.45,1.55-3.45h17.5c-.16,5.01-5.03,9.18-7.55,13.95-2.58,4.9-13.46,26.02-14.23,29.77-1.36,6.67-1.81,22.83,4.77,26.79l-1.5,2.49h-21l-1.5-2.49c6.56-4.32,6.18-21.91,4.77-28.79-.96-4.69-12.51-27.39-15.58-32.42-.52-.85-8.78-9.3-3.7-9.3h22Z"/>
			<path class="cls-3" d="M619.74,684.97c-9.1-10.56-20.48-8.31-32.99-6.99l14.34,4.15c1.82.59,11.08,9.56,9.65,10.84l-15.96-3.99c-4.79,13.56-18.82,12.72-24.63.06l-10.39,4.93v-8s-10.02-.51-10.02-.51c.26-4.18,2.29-13.91,6.25-15.76,21.66-2.36,61.34-19.77,63.76,15.27Z"/>
			<path class="cls-3" d="M661.25,1082.97l1.49,2.48c-2.67,2.43-4.57,5.31-5.01,9-1.8,14.96,1.27,33.53.16,48.88,1.39,4.25,15.31.57,18.39-2.33,1.71-1.61,1.84-4.11,3.16-5.06,1.01-.73,3.32-.95,3.32.54v17c0,.18-2.32,2.5-2.5,2.5h-41c-.83,0-1.83-2.08-1.4-3.39.58-1.79,4.23-1.36,4.92-7.09.79-6.62.74-50.87-.94-55.09-1.21-3.03-4.67-3.9-4.07-7.43h23.5Z"/>
			<path class="cls-3" d="M379.75,1338.98c7.58,10.69-.35,22.86-13.26,20.75-3.36-.55-27.72-14.65-27.72-16.26,2.12-1.94,4.14-1.25,6.54-3.44,1.84-1.69,20-30.87,20.25-32.78.26-2.04-1.18-4.13-.8-6.27,1.33-.36,1.78.38,2.68.81,5.96,2.8,25.5,15.87,27.08,21.94,2.05,7.84-7.16,15.93-14.77,15.26ZM373.76,1314.97l-7,12.5c13.2,11.31,24.78-8.41,7-12.5ZM363.35,1334.05l-7.41,11.43c12.05,14.78,25.73-6.38,7.41-11.43Z"/>
			<path class="cls-3" d="M534.76,1379.98c1.18,2.11,4.55,2.15,6.52,3.97,9.02,8.35,1.79,21.71-10.02,23.02-3.11.35-26.73-.89-27.46-2.07-1.74-2.81,2.41-3.27,3.42-4.96,2.05-3.44,2.26-33.2,1.59-38.53-.42-3.32-3.42-3.84-2.07-5.96,2.47-1.37,25.62.71,29,2.03,11.27,4.38,11.53,20.81-.98,22.5ZM519.75,1376.96c16.55,2.19,18.38-14.97,1-14.99l-1,14.99ZM519.75,1399.97c18.58,3.6,17.5-18.91,0-16v16Z"/>
			<path class="cls-3" d="M479.75,1376.97c.72,3.05,2.14,5.54,2.74,8.75.99,5.32-.73,11.56,4.77,15.24,1.58,3.52-12.58,1.4-14.58-1.43-4.62-6.54,2.49-20.24-7.46-22.49-1.69.16-3.95,14.02-3.3,16.21.61,2.02,4.53,3.01,1.83,5.23-1.4.92-18.98-3.36-18.99-5.02.97-1.63,3.46-2.23,4.42-3.56,1.12-1.57,8.44-34.59,8.52-37.56s-2.34-4.53-1.95-7.37c10.53,3.22,35.25,4.07,36.03,18.53.37,6.86-4.54,14.41-12.03,13.47ZM465.87,1370.85c16.13,6.32,20.11-15.87,2.82-15.47l-2.82,15.47Z"/>
			<path class="cls-3" d="M643.4,1366.62c-.48.58-4.31,2.48-3.65,3.33,6.82.35,9.42,10.73,13.28,13.72,2.13,1.65,6.38.39,6.72,3.78-.49,2.13-11.87,4.05-14.29,3.31-6.67-2.02-8.92-18.76-18.7-15.79.87,3.66,2.84,14.93,6,16.49,1.73.85,4.46-.52,3.98,1.99l-19.99,5.51c-.73-2.72,2.41-4.37,2.58-6.46.15-1.93-9.75-34.53-11.11-36.5-1.73-2.49-5.7-1.64-5.46-5.02,9.46-.94,22.22-7.05,31.41-5.92,10.5,1.3,16.15,13.18,9.24,21.57ZM619.75,1353.98l4.97,14.57c16.85-.97,11.76-21.66-4.97-14.57Z"/>
			<path class="cls-3" d="M509.75,1231.96c-13.26-1.7-27.28-3.91-39.68-8.81l-69.31-54.17c13.9,2.03,27.31,8.14,39.3,15.18,19.82,11.65,49.14,30.85,67.02,44.98.98.77,2.41,1.49,2.67,2.82Z"/>
			<path class="cls-3" d="M626.25,1082.97c3.94.99-1.91,4.97-2.3,5.66-3.59,6.51-1.47,31.61-1.14,39.81.2,5.09-1.4,17.16,1.04,20.93.92,1.42,3.39,1.95,3.8,3.21.43,1.32-.57,3.39-1.4,3.39h-22c-.31,0-1.85-2.03-2.48-2.5,3.52-3.12,5.42-5.11,5.98-10,.8-6.97.77-49.21-1.26-53.73-.85-1.89-2.41-2.83-3.73-4.28l1.5-2.49h22Z"/>
			<path class="cls-3" d="M744.74,1341.98c.36,1.52-.21,1.6-1.05,2.44-1.25,1.24-11.96,8.1-13.47,8.54-1.97.57-1.26-.38-1.44-1.5-2.31-14.02-9.14-8.7-17.86-3.3-.17,5.1,1.12,9.88,5.83,12.33v.97s-11.51,7.49-11.51,7.49c-3.1-2.19.52-3.97.31-7.2-.23-3.54-9.37-37.71-10.77-39.34-.71-.83-1.91-1.15-2.9-1.56l-.04-2.28,15.41-10.58c1.76,1.75,1.42,3.82,2.93,6.04,2.08,3.07,26.37,25.85,29.06,27.03,1.47.64,3.86.33,5.5.91ZM716.75,1337.95c1.11-1.51-10.06-11.52-11.99-12.99l4,17,7.99-4.01Z"/>
			<path class="cls-3" d="M591.65,1353.08l2.71,8.82c-.79,4.68-5.64.41-8.16.12-2.37-.27-12.05-.48-13.5.41l1.1,12.48c5.09.7,9.13-.33,13.42-2.95,1.46.28,3.75,11.5,1,12.01-3.77-2.4-8.83-3.09-13.06-1.06l1.58,14.05c.74.77,8.92-1.31,10.54-1.97,9.61-3.91,12.23-14.59,10.03,7.03l-34.6,3.47c-2.78-2.6,1.13-2.71,2.01-4.3.6-1.08.93-3.32.92-4.62-.06-6.1-4.2-31.27-6.6-36.36-.74-1.57-3.55-1.5-2.3-4.24l34.9-2.9Z"/>
			<path class="cls-3" d="M434.71,1337.03c1.62,2.48-2,3.24-2.77,4.59-1.94,3.44-1.79,18.74-2.2,23.84-.65,8.17-3.77,15.59,0,23.5l-15.86-5.12c-2.15-3.34,5.74-6.14,3.74-12.2-.48-1.47-8.94-5.24-10.64-5.51-5.61-.9-8.38,5.97-7.24,10.83l-13.95-4.06-.05-2.93c1.32.05,2.74.09,3.95-.53,1.9-.97,26.55-30.32,27.54-32.49.88-1.94.51-3.97.52-5.98l16.96,6.06ZM418.74,1363.97l1-18-10.01,13.48,9.01,4.52Z"/>
			<path class="cls-3" d="M775.46,1118.18c7.81-1.73,18.95.72,26.75.83,17.61.25,40.02-1.35,57.09.91,6.92.92,5.56,8.07-1.03,8.06-25.58-3.09-57.38,4.33-82.07,1.03-6.41-.86-7.73-9.29-.74-10.84Z"/>
			<path class="cls-3" d="M296.54,1118.27c3.99-.11,13.46-1.38,14.24,4.26.51,3.65-2.1,6.05-5.48,6.49-10.39,1.36-21.73-.95-32.01-1.09-15.08-.21-34.74,1.72-49.06.06-8.57-1-6.25-7.2,1-8.04,13.31-1.54,31.08.37,45.06.06,8.29-.18,17.8-1.51,26.25-1.74Z"/>
			<path class="cls-3" d="M672.76,1381.96c-.59-2.47,1.86-4.36,1.9-6.47.05-2.42-13.55-33.73-15.46-35.48-1.31-1.19-3.31-1.06-4.43-2.55l16.97-8.5c1.49,2.86-.96,4.32-.59,7.02.41,3.03,13.49,33.93,15.04,35.04,1.7,1.23,4.21.55,5.55,2.43,0,2.12-18.24,9.24-18.97,8.49Z"/>
			<path class="cls-3" d="M757.75,1304.96c20.62-23.94-8.47-24.24-22.51-11-1.49-6.33,9.01-14.26,14.18-16.82,29.31-14.49,39.24,27.79,8.33,27.82Z"/>
			<path class="cls-3" d="M347.74,1293.96c-3.88-1.26-6.79-4.15-10.64-5.85-18.33-8.12-26.75.65-14.36,16.85-12.15.36-22.01-11.33-15.55-23.04,9.54-17.28,36.25-2.17,40.54,12.04Z"/>
			<path class="cls-3" d="M656.76,1330.97c.2-7.29,3.44-11.27,9.98-14-.63,6.51-3.48,12.02-9.98,14Z"/>
		</g>
	</g>
</svg>