<?xml version="1.0" encoding="UTF-8"?>
<svg id="Capa_1" xmlns="http://www.w3.org/2000/svg" version="1.1" xmlns:xlink="http://www.w3.org/1999/xlink" viewBox="0 0 634.8 649.2">
	<!-- Generator: Adobe Illustrator 29.3.1, SVG Export Plug-In . SVG Version: 2.1.0 Build 151)  -->
	<defs>
		<style>
			.st0 {
			fill: #fff;
			}

			.st1 {
			fill: #f17b1d;
			}

			.st2 {
			fill: #f6f7f8;
			}
		</style>
	</defs>
	<g>
		<circle class="st0" cx="245.6" cy="255" r="203.4"/>
		<g>
			<path class="st0" d="M378.3,32.4l20.8,8,29.8,27.7,22.1,25.3,5.5,9.2c.5.9,1.6,1.1,2.4.5l21.9-15.3c1.1-.8,1.2-2.4.2-3.4l-7.1-6.6-53.8-57.1L398.4.7c-1.2-1.1-3-.8-3.9.5l-17.4,27.8c-.8,1.3-.2,2.9,1.1,3.5Z"/>
			<path class="st0" d="M549.1,315.9l38.6-9c1.1-.3,2.2.5,2.4,1.6l2.7,17.5c-.1.8-.5,2.2-1.4,3.6-1.3,1.9-3,2.8-3.7,3.2-9,1.9-18.1,3.8-27.1,5.7-.9,0-2-.2-3.3-.6-2.1-.7-3.5-1.9-4.2-2.6-1.9-5.4-3.8-10.7-5.7-16.1-.5-1.4.3-2.9,1.7-3.2Z"/>
			<path class="st0" d="M563.9,340.5c-1.3.3-2.2,1.5-2,2.8,1.9,18.4,6.6,43.8,18.4,72,12.2,29.1,27.7,50.8,39.9,65.3,1.1,1.3,3.1,1.2,4.1-.2,3.4-4.9,6.7-9.7,10.1-14.6s.6-2.2,0-3.1c-9.5-12-20.7-29-29.7-51-12-29.2-15.2-55.5-15.9-73.6s-1.6-2.8-3.1-2.4c-7.2,1.6-14.4,3.1-21.6,4.7Z"/>
			<path class="st0" d="M501.5,319.1c-3.4,9.7-7.5,25.3-7.2,44.7.3,19.6,5,35.1,8.8,44.8,3,6.3,9.7,18.2,23.2,27.7,8.3,5.9,16.4,8.8,22.1,10.4,7.9.9,17.2,1.4,27.7.8,7.8-.5,14.9-1.5,21-2.7-4.2-8.3-8.3-16.7-12.5-25-2.2,2.2-6,5.4-11.5,7.6-9.5,3.8-18.1,2-21.3,1.2-4.9-1.9-15.5-6.6-23.8-17.7-5-6.7-7.4-13.2-8.7-17.7-2.2-10-4.1-23.7-3.2-40,.8-13.7,3.4-25.3,6.1-34.1h-20.8Z"/>
			<path class="st0" d="M506.2,203c-1.8.7-4.4,2-7.1,4.3-3.7,3.4-5.4,7.2-6.1,9.3,0,8.4.4,17.7,1.5,27.9,1.2,10.9,3,20.8,5.1,29.5h16c-1.5-7.8-2.7-16.7-3.3-26.6-.5-8.6-.4-16.5,0-23.6,1-1,2.2-2.3,3.3-3.9,1-1.5,1.7-2.9,2.3-4.1.3-.7,1-2.6.6-4.9-.3-2.1-1.3-3.5-1.8-4.1-.5-.7-2.1-2.6-4.8-3.5-2.6-.9-4.9-.5-5.8-.3Z"/>
			<path class="st0" d="M585.2,278.3c-.4-3.7-1.1-7.3-2.1-10.9-3-10.8-5.9-22.2-8.5-34.2-3.5-15.8-6.2-30.9-8.4-45.1,1.6-4.2,3.4-10.1,4.1-17.3.7-7.5,0-13.8-.9-18.3-1.4-4.2-3.8-9.7-7.8-15.6-4.4-6.3-9.1-10.8-12.7-13.7-6.5-3.7-13.6-7.5-21.1-11.2-6.4-3.1-12.6-5.9-18.6-8.5l-9.3-10.6c-1.4-1.6-3.7-1.9-5.5-.8l-32.6,20.9c-2.4,1.5-3.1,4.6-1.8,7.1l10.1,18c-2.4,2.6-5.1,5.8-7.7,9.8-4.1,6.2-6.5,12.2-8.1,16.9-.8,3.8-1.4,8-1.8,12.6-.5,6-.5,11.4-.3,16.2,2,16.1,5,33.6,9.2,52.1,2.7,11.8,5.6,22.9,8.7,33.4.9,3.2,2.3,6.2,4.1,9h0c3.5,5.5,7.4,10,11,13.6,1,1,2.4,2.3,4.5,3.3,2.6,1.4,4.9,1.8,6.4,2,8.6-.9,17.7-2.1,27.4-3.8,8.7-1.6,16.9-3.3,24.6-5.3.4,1.4.7,2.9,1,4.5.3,1.6.6,8.7.8,10.2,6-1.3,12-2.7,18-4,6.6-1.5,13.1-3,19.6-4.5l-2.3-25.7ZM498.4,284c-1.2.2-2.4-.5-3-1.6-5.3-10.6-10.7-23.5-15.2-38.6-3.1-10.7-4.1-20.5-5.2-29.5-.6-5,.4-10.2,3-14.5.8-1.4,1.9-2.8,3.3-4.1,6.6-6.4,13.8-8.7,17.2-9.5,2.6-.4,8.2-1,14.6,1.2,4.3,1.5,7.5,3.7,9.7,5.6s3,3.3,3.8,5.4c4,10.9,7.9,23.2,11.2,36.7,2.8,11.3,4.8,22,6.3,31.8.2,2.3.3,4.7.4,7.2,0,.7,0,1.3,0,2,0,1.1-.8,2.1-1.9,2.2-14.7,1.9-29.4,3.7-44.2,5.6Z"/>
		</g>
		<path class="st0" d="M463.2,283.2c-13.9,108.2-106.3,191.7-218.2,191.7S25,376.5,25,255,123.5,35,245,35s168.2,53.5,201.2,133.4c.4-3.9,1.4-9.4,4-15.4,3-7.1,6.9-12.1,9.8-15.3-13.8-23.1-57.8-89.9-142.3-116.8-37.1-11.8-67.1-11-72.7-11C109.7,9.9,0,119.6,0,255s109.7,245,245,245,211.8-79.5,238-186.6c-8-9-14.7-19.1-19.8-30.2Z"/>
		<g>
			<path class="st1" d="M297.5,300.9c-.7,4-5.3,8-9.4,8.6s-15.3.6-18.9-1.7c-8.2-5.3-3.6-18.6-4.9-26.8s-3.6-5.9-4.4-8.7c-2.5-7.8-1.9-28.3,2.5-35.4.5-.8,4.1-3.9,3.3-4.6-9.1,1.1-10.9-1-12.1-9.6-.4-2.8-.8-6.2,2.8-6.9,3.8-.7,20,.9,21.6-.1,5.8-16.7,12.8-32.3,31.4-37.2s45.5-2.2,57.3-1.3c11.4.9,23.2,7.9,29.3,17.6,4,6.4,5.6,13.9,8.9,20.7,1.7,1.2,17.3-.2,21.1.3s3.3,3.4,3,6.5c-.8,7.9-3.2,11.3-11.6,10.1,2.6,3.3,5.1,6.5,6.2,10.7,1.6,6.5,1.4,24.5-1,30.6s-3.5,5.4-3.8,6.6c-1.6,8.3,3.6,22-4.9,27.5s-19.5,2.7-23.7-.3-4.5-4.9-4.5-6.5v-13.4h-88.2c-.5,4.1.7,9.5,0,13.4ZM385.7,226.9c-5.1-10.7-6.4-26.3-21-27.6-11.8-1.1-33.6-.9-45.5,0-15.6,1.2-16.2,16.2-21.7,27.6h88.2ZM302.1,263.2c5-6.1-7.8-18.6-14.1-19.6-15.4-2.5-17.2,20.3-3.3,21.9,3.5.4,15.1.5,17.4-2.3ZM381.1,263.2c2.2,2.7,13.8,2.7,17.4,2.3,16.2-1.8,10.2-29.7-7.7-20.1-4.5,2.4-13.9,12.7-9.6,17.9Z"/>
			<path class="st1" d="M106,300.9c-.7,4-5.3,8-9.4,8.6s-15.3.6-18.9-1.7c-8.2-5.3-3.6-18.6-4.9-26.8s-3.6-5.9-4.4-8.7c-2.5-7.8-1.9-28.3,2.5-35.4.5-.8,4.1-3.9,3.3-4.6-9.1,1.1-10.9-1-12.1-9.6-.4-2.8-.8-6.2,2.8-6.9,3.8-.7,20,.9,21.6-.1,5.8-16.7,12.8-32.3,31.4-37.2,10.3-2.7,45.5-2.2,57.3-1.3s23.2,7.9,29.3,17.6,5.6,13.9,8.9,20.7c1.7,1.2,17.3-.2,21.1.3s3.3,3.4,3,6.5c-.8,7.9-3.2,11.3-11.6,10.1,2.6,3.3,5.1,6.5,6.2,10.7,1.6,6.5,1.4,24.5-1,30.6-.8,2.1-3.5,5.4-3.8,6.6-1.6,8.3,3.6,22-4.9,27.5s-19.5,2.7-23.7-.3-4.5-4.9-4.5-6.5v-13.4h-88.2c-.5,4.1.7,9.5,0,13.4ZM194.2,226.9c-5.1-10.7-6.4-26.3-21-27.6-11.8-1.1-33.6-.9-45.5,0-15.6,1.2-16.2,16.2-21.7,27.6h88.2ZM110.6,263.2c5-6.1-7.8-18.6-14.1-19.6-15.4-2.5-17.2,20.3-3.3,21.9,3.5.4,15.1.5,17.4-2.3ZM189.6,263.2c2.2,2.7,13.8,2.7,17.4,2.3,16.2-1.8,10.2-29.7-7.7-20.1-4.5,2.4-13.9,12.7-9.6,17.9Z"/>
			<g>
				<path class="st0" d="M201.8,331.4c-.7,4-5.3,8-9.4,8.6s-15.3.6-18.9-1.7c-8.2-5.3-3.6-18.6-4.9-26.8-.4-2.4-3.6-5.9-4.4-8.7-2.5-7.8-1.9-28.3,2.5-35.4s4.1-3.9,3.3-4.6c-9.1,1.1-10.9-1-12.1-9.6-.4-2.8-.8-6.2,2.8-6.9s20,.9,21.6-.1c5.8-16.7,12.8-32.3,31.4-37.2,10.3-2.7,45.5-2.2,57.3-1.3,11.4.9,23.2,7.9,29.3,17.6,4,6.4,5.6,13.9,8.9,20.7,1.7,1.2,17.3-.2,21.1.3s3.3,3.4,3,6.5c-.8,7.9-3.2,11.3-11.6,10.1,2.6,3.3,5.1,6.5,6.2,10.7,1.6,6.5,1.4,24.5-1,30.6-.8,2.1-3.5,5.4-3.8,6.6-1.6,8.3,3.6,22-4.9,27.5-4.3,2.8-19.5,2.7-23.7-.3-1.4-1-4.5-4.9-4.5-6.5v-13.4h-88.2c-.5,4.1.7,9.5,0,13.4ZM289.9,257.3c-5.1-10.7-6.4-26.3-21-27.6-11.8-1.1-33.6-.9-45.5,0-15.6,1.2-16.2,16.2-21.7,27.6h88.2ZM206.4,293.7c5-6.1-7.8-18.6-14.1-19.6-15.4-2.5-17.2,20.3-3.3,21.9,3.5.4,15.1.5,17.4-2.3ZM285.3,293.7c2.2,2.7,13.8,2.7,17.4,2.3,16.2-1.8,10.2-29.7-7.7-20.1-4.5,2.4-13.9,12.7-9.6,17.9Z"/>
				<path class="st0" d="M185.9,344.1c-5,0-11.1-.5-14.4-2.6-7.5-4.9-7-14.1-6.6-21.4.2-3,.3-5.8,0-8-.1-.6-1.1-2.1-1.7-3-1-1.6-2.1-3.3-2.6-5.1-2.6-8.1-2.3-28.4,2.3-37.4-5.8-1.2-7.6-5.6-8.7-12.8-.3-2.4-1.4-9.9,5.9-11.2,2.1-.4,5.8-.3,11.7,0,2.4,0,5.7.2,7.8.2,5.9-16.3,13.6-32.2,33.2-37.4,11.5-3,48-2.2,58.6-1.4,12.6,1,25.6,8.8,32.2,19.4,2.6,4.1,4.2,8.6,5.8,12.9.8,2.2,1.6,4.4,2.5,6.4,2.3.1,6.6,0,9.4-.1,4.1-.1,7.6-.2,9.5,0,7.4.9,6.6,7.8,6.4,10.3v.4c-.5,4.1-1.4,8.7-4.9,11.5-1,.8-2.1,1.3-3.3,1.7,1.1,1.9,2.1,3.9,2.6,6.3,1.7,6.8,1.7,25.7-1.2,32.9-.5,1.4-1.5,2.8-2.4,4.3-.4.6-1,1.5-1.2,1.9-.4,2.2-.2,5.1,0,8.2.5,7.4,1.1,16.6-6.5,21.6-5.6,3.7-22.7,3.4-28.1-.4-1.8-1.3-6.1-6.2-6.1-9.7v-9.6h-80.6c0,.8,0,1.5.1,2.3.2,2.6.3,5.4,0,7.9h0c-.9,5.6-6.7,10.9-12.6,11.7-1,.1-3.7.4-7.1.4ZM293.8,331.1c.4,1,2.1,3.2,2.9,3.8,2.9,2.1,16.3,2.2,19.4.2,3.6-2.3,3.5-7.3,3-14.6-.2-3.5-.5-7.2.1-10.4.2-1.3,1-2.5,2.3-4.4.6-.9,1.5-2.2,1.7-2.9,2.1-5.2,2.3-22.3.8-28.3-.8-3.5-3.2-6.4-5.4-9.2l-6.1-7.6,9.6,1.4c1.8.3,4.2.4,5.3-.5,1-.8,1.6-2.8,2-6.2v-.4c.1-.6.2-1.4.2-1.9-1.4-.1-4.9,0-8.1,0-9.9.3-12.7.2-14.5-1l-.9-.6-.5-.9c-1.4-2.9-2.5-6-3.6-8.9-1.5-4.1-2.9-8-5.1-11.5-5.4-8.6-16-15-26.3-15.8-11.5-.9-46.2-1.4-56,1.2-16.9,4.4-23.2,19-28.7,34.7l-.5,1.3-1.2.7c-1.7,1-3.9,1.1-12.9.7-3.6-.1-8.4-.3-9.9,0,0,.7.1,1.9.2,2.6,1,6.9,1.2,7.1,7.8,6.3l1.7-.2,1.3,1.1c.9.8,1.4,1.8,1.5,3,.1,2.3-1.6,4.1-3.4,6-.3.3-.5.5-.7.7-3.5,5.9-4.3,24.8-2,32,.3.8,1.1,2.1,1.8,3.3,1.2,1.9,2.4,3.9,2.8,5.9.5,3,.3,6.4.1,9.6-.4,7.3-.4,12.3,3.1,14.5,2,1.3,11.3,1.8,16.2,1.1,2.5-.3,5.7-3.2,6.1-5.4h0c.3-1.6.1-3.9,0-6.1-.1-2.4-.3-4.8,0-7.1l.4-3.4h95.5v16.9ZM326.7,311.8h0ZM194.2,300c-3.2,0-5.6-.2-5.6-.2-5.4-.6-9.6-3.8-11.6-8.6-2.2-5.2-1.4-11.6,2-15.9,3.2-4.1,8.3-5.9,13.9-4.9,6.2,1,15,8.8,17.6,15.8,1.5,3.9,1.1,7.4-1.1,10.1h0c-2.7,3.3-10,3.9-15.1,3.9ZM190,277.7c-2.1,0-3.8.8-5,2.2-1.7,2.1-2.1,5.5-1,8.2.7,1.6,2.1,3.6,5.4,4,4.3.5,12.2,0,14-1,.3-.6,0-1.6-.2-2.4-1.8-4.8-8.7-10.4-11.6-10.9-.6,0-1.2-.1-1.7-.1ZM203.4,291.2s0,0,0,0h0s0,0,0,0ZM203.6,291h0ZM297.5,300c-5.2,0-12.5-.6-15.1-3.9h0c-1.2-1.5-2.5-4-1.7-7.8,1.4-6.9,8.8-13.9,12.5-15.9,6.4-3.4,12.7-3.3,17.3.5,4.7,3.8,6.7,10.7,4.9,16.8-1.6,5.6-6.2,9.4-12.2,10,0,0-2.5.2-5.6.2ZM288.2,291.1c1.9,1,9.8,1.5,14,1,3.7-.4,5.2-2.7,5.7-4.5.9-3.1-.1-6.9-2.4-8.7-2.7-2.2-6.2-1-8.8.3-2.8,1.5-7.9,7-8.6,10.6-.1.7,0,1.1,0,1.2ZM288.1,291h0ZM296.1,261.2h-100.4l2.7-5.5c1.2-2.5,2.2-5.3,3.2-8.1,3.4-9.7,7.3-20.6,21.7-21.7,11.7-.9,33.9-1.1,46.2,0,13.7,1.2,17.8,12.8,21.1,22.1,1,2.7,1.9,5.3,3,7.6l2.6,5.5ZM207.5,253.5h76.7c-.4-.9-.7-1.9-1-2.8-3.6-10.1-6.4-16.3-14.6-17.1-11.9-1.1-33.5-.9-44.9,0-9,.7-11.5,6.8-15,16.6-.4,1.1-.8,2.2-1.2,3.3Z"/>
			</g>
			<path class="st1" d="M201.8,331.4c-.7,4-5.3,8-9.4,8.6s-15.3.6-18.9-1.7c-8.2-5.3-3.6-18.6-4.9-26.8-.4-2.4-3.6-5.9-4.4-8.7-2.5-7.8-1.9-28.3,2.5-35.4s4.1-3.9,3.3-4.6c-9.1,1.1-10.9-1-12.1-9.6-.4-2.8-.8-6.2,2.8-6.9s20,.9,21.6-.1c5.8-16.7,12.8-32.3,31.4-37.2,10.3-2.7,45.5-2.2,57.3-1.3,11.4.9,23.2,7.9,29.3,17.6,4,6.4,5.6,13.9,8.9,20.7,1.7,1.2,17.3-.2,21.1.3s3.3,3.4,3,6.5c-.8,7.9-3.2,11.3-11.6,10.1,2.6,3.3,5.1,6.5,6.2,10.7,1.6,6.5,1.4,24.5-1,30.6-.8,2.1-3.5,5.4-3.8,6.6-1.6,8.3,3.6,22-4.9,27.5-4.3,2.8-19.5,2.7-23.7-.3-1.4-1-4.5-4.9-4.5-6.5v-13.4h-88.2c-.5,4.1.7,9.5,0,13.4ZM289.9,257.3c-5.1-10.7-6.4-26.3-21-27.6-11.8-1.1-33.6-.9-45.5,0-15.6,1.2-16.2,16.2-21.7,27.6h88.2ZM206.4,293.7c5-6.1-7.8-18.6-14.1-19.6-15.4-2.5-17.2,20.3-3.3,21.9,3.5.4,15.1.5,17.4-2.3ZM285.3,293.7c2.2,2.7,13.8,2.7,17.4,2.3,16.2-1.8,10.2-29.7-7.7-20.1-4.5,2.4-13.9,12.7-9.6,17.9Z"/>
			<path class="st0" d="M289.9,257.3c-5.1-10.7-6.4-26.3-21-27.6-11.8-1.1-33.6-.9-45.5,0-15.6,1.2-16.2,16.2-21.7,27.6h88.2Z"/>
			<path class="st0" d="M285.3,293.7c2.2,2.7,13.8,2.7,17.4,2.3,16.2-1.8,10.2-29.7-7.7-20.1-4.5,2.4-13.9,12.7-9.6,17.9Z"/>
			<path class="st0" d="M196.7,275.8c-17.9-9.6-23.9,18.3-7.7,20.1,3.5.4,15.1.5,17.4-2.3,4.3-5.2-5.2-15.5-9.6-17.9Z"/>
		</g>
	</g>
	<g>
		<g>
			<g>
				<path class="st2" d="M242,563c31.5-2.8,50.4,16.4,40.9,47.9s-23.6,35-44.8,37.7c-67.4,8.6-53.4-80.5,3.9-85.6ZM243,581.7c-22.6,2.3-35.3,51.8-5.4,47.8,19.8-2.7,31.9-50.5,5.4-47.8Z"/>
				<path class="st2" d="M139.1,564.8l-5.2,19.1h-37c-1.1.5-3.5,11.6-4,13.6h31.2l-4.7,18.6h-32.6c0,0-8.4,31.3-8.4,31.3h-26.1c4.4-17,8.8-34,13.7-50.9,3.5-12.2,5.3-24.7,18.9-29.6s6.4-2,7.8-2h46.4Z"/>
				<polygon class="st2" points="172.2 564.8 155 627.7 190.4 627.7 184.6 647.3 122.8 647.3 145.2 564.8 172.2 564.8"/>
			</g>
			<g>
				<polygon class="st2" points="372.2 564.8 367 584.3 342 584.4 324.2 647.3 297.6 647.3 315.3 584.3 290.6 584.3 295.7 564.8 372.2 564.8"/>
				<path class="st2" d="M341.7,647.3l-.3-.3,54.3-81.8,1.4-.5h29.9s12.3,82.5,12.3,82.5h-26.6l-1.9-17.2h-33.2s-11.7,17.2-11.7,17.2h-24.2ZM388.5,612.3h21l-3-27.5-17.9,27.5Z"/>
			</g>
		</g>
		<path class="st2" d="M449.4,624.3c6.1,3.3,15,6.1,24.8,6.1s11.9-2,11.9-6.7-4.2-6.1-12.4-9.4c-9-3.6-21.3-10-21.3-23.2s17.8-28.4,39-28.4,20,2.4,24.8,4.5l-7.5,18.3c-3-1.5-10.9-4.2-19.4-4-8.5,0-12,2.8-12,5.7,0,4.3,7.5,7.1,13.9,9.8,11.6,4.8,20.1,11.5,20.1,22.7,0,21-19.7,29.5-40.1,29.5s-25-3.7-30.1-7.1l8.2-17.8Z"/>
	</g>
</svg>