<?xml version="1.0" encoding="UTF-8"?>
<!DOCTYPE svg PUBLIC "-//W3C//DTD SVG 1.1//EN" "http://www.w3.org/Graphics/SVG/1.1/DTD/svg11.dtd">
<svg xmlns="http://www.w3.org/2000/svg" version="1.1" width="1024px" height="1536px" style="shape-rendering:geometricPrecision; text-rendering:geometricPrecision; image-rendering:optimizeQuality; fill-rule:evenodd; clip-rule:evenodd" xmlns:xlink="http://www.w3.org/1999/xlink">
	<g>
		<path style="opacity:1" fill="#fefffe" d="M 531.5,193.5 C 563.845,192.292 586.678,206.625 600,236.5C 602.476,246.079 603.143,255.746 602,265.5C 610.231,245.934 607.398,228.101 593.5,212C 614.342,219.721 625.675,234.887 627.5,257.5C 627.597,268.804 623.264,277.971 614.5,285C 602.095,293.515 588.428,298.515 573.5,300C 576.128,298.374 578.461,296.374 580.5,294C 579.5,293.833 578.5,293.667 577.5,293.5C 560.431,297.356 543.431,301.522 526.5,306C 518.5,306.667 510.5,306.667 502.5,306C 487.308,303.119 472.308,299.452 457.5,295C 447.587,293.636 437.754,292.136 428,290.5C 429.455,294.942 432.621,297.776 437.5,299C 430.787,301.103 424.954,304.603 420,309.5C 418.725,311.717 417.725,314.051 417,316.5C 416.667,326.5 416.333,336.5 416,346.5C 411.526,354.256 408.859,362.589 408,371.5C 405.352,400.37 409.019,428.37 419,455.5C 423.477,465.144 429.977,473.144 438.5,479.5C 434.535,482.543 430.035,483.876 425,483.5C 418.943,484.039 413.943,482.039 410,477.5C 410.107,481.962 412.274,485.128 416.5,487C 424.565,489.362 432.231,488.362 439.5,484C 452.913,473.291 467.579,464.624 483.5,458C 479.304,451.333 479.971,445.166 485.5,439.5C 486.321,442.447 486.821,445.447 487,448.5C 487.465,449.931 488.299,451.097 489.5,452C 497.509,450.907 504.343,453.407 510,459.5C 513.081,456.707 516.581,454.54 520.5,453C 524.213,452.595 527.879,452.595 531.5,453C 532.701,452.097 533.535,450.931 534,449.5C 534.182,446.774 534.682,444.107 535.5,441.5C 537.422,443.003 538.588,445.003 539,447.5C 539.922,451.701 539.422,455.701 537.5,459.5C 552.621,465.225 565.954,473.725 577.5,485C 587.323,492.256 597.656,493.256 608.5,488C 610.95,485.611 612.117,482.778 612,479.5C 602.084,489.586 591.584,490.086 580.5,481C 591.44,474.727 599.606,465.894 605,454.5C 615.703,427.486 619.703,399.486 617,370.5C 615.315,361.501 612.815,352.835 609.5,344.5C 610.501,337.147 611.501,329.813 612.5,322.5C 611.545,311.417 605.878,303.917 595.5,300C 602.456,296.855 609.123,293.189 615.5,289C 620.113,285.225 623.78,280.725 626.5,275.5C 644.51,283.332 652.676,296.999 651,316.5C 648.188,310.21 644.855,304.21 641,298.5C 640.833,298.833 640.667,299.167 640.5,299.5C 646.082,308.424 647.916,318.09 646,328.5C 641.851,344.429 638.018,360.429 634.5,376.5C 640.739,375.536 645.239,377.869 648,383.5C 650.087,404.979 646.754,425.646 638,445.5C 633.366,449.456 629.533,453.956 626.5,459C 629.355,474.713 630.521,490.546 630,506.5C 629.584,512.669 628.417,518.669 626.5,524.5C 624.612,519.722 622.445,515.055 620,510.5C 624.356,534.746 618.023,555.746 601,573.5C 603.237,563.36 603.903,553.026 603,542.5C 602.118,570.691 589.118,591.025 564,603.5C 563.5,603.333 563,603.167 562.5,603C 565.608,599.294 567.442,595.127 568,590.5C 558.732,606.787 544.898,616.287 526.5,619C 530.698,615.181 533.531,610.681 535,605.5C 519.261,619.412 502.094,621.245 483.5,611C 478.333,607.167 473.833,602.667 470,597.5C 471.061,602.944 473.561,607.777 477.5,612C 434.841,599.543 414.675,571.043 417,526.5C 413.157,539.864 412.99,553.197 416.5,566.5C 413.162,565.018 410.328,562.352 408,558.5C 400.272,544.065 397.272,528.732 399,512.5C 397.392,515.382 396.059,518.382 395,521.5C 393.837,519.715 393.17,517.715 393,515.5C 392.206,509.692 391.706,503.858 391.5,498C 392.299,483.153 392.799,468.319 393,453.5C 388.561,449.062 384.894,444.062 382,438.5C 376.122,419.821 374.455,400.821 377,381.5C 379.678,375.076 384.511,372.076 391.5,372.5C 389.61,355.604 386.443,338.937 382,322.5C 379.959,312.395 380.459,302.395 383.5,292.5C 378.813,284.421 376.98,275.754 378,266.5C 384.216,273.833 391.716,278.999 400.5,282C 381.375,268.963 376.208,251.796 385,230.5C 386,229.5 387,228.5 388,227.5C 391.459,243.623 401.292,250.123 417.5,247C 420.893,246.202 424.226,245.202 427.5,244C 420.081,243.206 413.581,240.372 408,235.5C 403.761,229.355 402.594,222.689 404.5,215.5C 408.211,218.138 412.377,219.472 417,219.5C 428.881,216.923 440.881,215.257 453,214.5C 477.357,214.612 497.691,223.612 514,241.5C 520.836,250.672 524.503,261.006 525,272.5C 527.756,260.18 525.422,248.847 518,238.5C 500.009,217.04 476.842,206.54 448.5,207C 479.517,193.001 510.517,193.001 541.5,207C 564.533,218.718 576.033,237.551 576,263.5C 581.165,245.494 577.499,229.494 565,215.5C 555.54,205.523 544.373,198.19 531.5,193.5 Z M 532.5,220.5 C 534.027,220.427 535.027,221.094 535.5,222.5C 533.973,222.573 532.973,221.906 532.5,220.5 Z M 535.5,222.5 C 552.219,231.272 558.719,244.939 555,263.5C 553.851,247.206 547.351,233.539 535.5,222.5 Z M 468.5,240.5 C 491.91,245.071 505.077,259.071 508,282.5C 501.481,262.151 488.315,248.151 468.5,240.5 Z M 474.5,277.5 C 461.366,270.736 447.366,266.903 432.5,266C 444.697,264.252 456.364,265.919 467.5,271C 470.331,272.666 472.664,274.832 474.5,277.5 Z M 387.5,384.5 C 390.862,384.07 393.695,385.07 396,387.5C 399.152,396.578 400.152,405.912 399,415.5C 397.333,411.833 395.667,408.167 394,404.5C 394.599,415.78 394.599,427.113 394,438.5C 389.495,431.158 386.828,423.158 386,414.5C 384.779,406.194 384.446,397.86 385,389.5C 385.366,387.548 386.199,385.882 387.5,384.5 Z M 633.5,386.5 C 637.876,387.212 639.876,389.879 639.5,394.5C 638.89,411.175 635.39,427.175 629,442.5C 629.281,431.128 630.114,419.795 631.5,408.5C 631.154,407.304 630.654,407.304 630,408.5C 628.591,412.316 626.924,415.983 625,419.5C 623.248,408.604 624.914,398.271 630,388.5C 631.302,387.915 632.469,387.249 633.5,386.5 Z M 455.5,493.5 C 460.659,488.658 466.492,484.658 473,481.5C 473.167,481.833 473.333,482.167 473.5,482.5C 468.111,487.193 462.111,490.86 455.5,493.5 Z M 523.5,482.5 C 529.083,485.747 534.083,489.747 538.5,494.5C 532.341,492.014 527.341,488.014 523.5,482.5 Z M 485.5,492.5 C 487.647,490.53 489.98,488.697 492.5,487C 494.402,485.699 496.402,485.032 498.5,485C 494.765,488.534 490.432,491.034 485.5,492.5 Z M 560.5,496.5 C 556.458,494.638 552.792,492.138 549.5,489C 550.908,488.685 552.241,489.018 553.5,490C 555.907,492.183 558.24,494.35 560.5,496.5 Z M 508.5,497.5 C 521.305,502.157 534.305,506.324 547.5,510C 559.869,512.674 572.202,513.007 584.5,511C 573.915,517.32 562.415,520.487 550,520.5C 545.564,519.533 541.397,517.866 537.5,515.5C 537.167,515.667 536.833,515.833 536.5,516C 538.43,519.334 539.597,522.834 540,526.5C 533.954,520.949 527.788,515.616 521.5,510.5C 512.847,511.357 504.181,511.523 495.5,511C 491.09,514.621 486.59,518.121 482,521.5C 482.741,518.366 483.741,515.366 485,512.5C 477.691,516.619 469.857,518.453 461.5,518C 463.044,517.71 464.377,517.044 465.5,516C 456.935,515.444 448.602,513.777 440.5,511C 452.845,511.974 465.179,511.641 477.5,510C 488.138,506.339 498.472,502.172 508.5,497.5 Z M 521.5,531.5 C 527.525,538.061 530.525,545.894 530.5,555C 530.204,564.986 528.204,574.486 524.5,583.5C 527.312,572.003 528.146,560.336 527,548.5C 526.24,542.452 524.407,536.786 521.5,531.5 Z M 501.5,562.5 C 499.945,558.797 499.278,554.797 499.5,550.5C 499.521,545.777 500.021,541.111 501,536.5C 501.5,545.16 501.666,553.827 501.5,562.5 Z M 489.5,582.5 C 483.537,574.612 480.537,565.612 480.5,555.5C 480.901,550.427 481.734,545.427 483,540.5C 482.559,547.137 482.559,553.804 483,560.5C 484.551,568.04 486.717,575.374 489.5,582.5 Z M 586.5,544.5 C 587.855,551.389 587.688,558.389 586,565.5C 586.23,558.529 586.397,551.529 586.5,544.5 Z M 452.5,586.5 C 441,575.161 436.834,561.494 440,545.5C 441.254,560.091 445.42,573.758 452.5,586.5 Z M 556.5,576.5 C 557.929,568.579 558.762,560.579 559,552.5C 559.667,558.167 559.667,563.833 559,569.5C 558.844,572.191 558.011,574.524 556.5,576.5 Z M 452.5,586.5 C 453.906,586.973 454.573,587.973 454.5,589.5C 453.094,589.027 452.427,588.027 452.5,586.5 Z"/>
	</g>
	<g>
		<path style="opacity:1" fill="#fefffe" d="M 440.5,358.5 C 460.179,358.336 479.345,361.336 498,367.5C 501.737,375.901 503.571,384.735 503.5,394C 502.506,406.145 500.006,417.978 496,429.5C 495.823,415.138 495.156,400.805 494,386.5C 493.29,385.027 492.124,384.36 490.5,384.5C 490.817,387.572 490.484,390.572 489.5,393.5C 486.334,391.167 482.834,389.501 479,388.5C 470.466,401.666 461.633,401.833 452.5,389C 445.38,388.491 438.546,389.657 432,392.5C 433.237,389.224 435.403,386.391 438.5,384C 443.67,380.382 449.337,377.716 455.5,376C 450.5,375.333 445.5,375.333 440.5,376C 434.588,378.135 428.922,380.468 423.5,383C 423.791,374.831 426.791,367.831 432.5,362C 435.158,360.522 437.825,359.355 440.5,358.5 Z"/>
	</g>
	<g>
		<path style="opacity:1" fill="#fefffe" d="M 563.5,360.5 C 573.254,359.603 582.587,361.103 591.5,365C 597.25,370.965 600.25,377.798 600.5,385.5C 591.644,378.716 581.644,375.882 570.5,377C 579.794,380.641 587.127,386.641 592.5,395C 586.59,393.861 580.59,392.694 574.5,391.5C 571.071,393.748 567.737,396.248 564.5,399C 555.457,400.972 549.623,397.472 547,388.5C 542.54,390.063 538.54,392.396 535,395.5C 534.248,392.106 534.415,388.773 535.5,385.5C 531.521,384.495 527.521,384.495 523.5,385.5C 523.776,379.115 526.11,373.615 530.5,369C 541.344,365.071 552.344,362.238 563.5,360.5 Z"/>
	</g>
	<g>
		<path style="opacity:1" fill="#fefffe" d="M 209.5,567.5 C 228.756,569.241 236.922,579.575 234,598.5C 229.636,609.549 221.803,613.382 210.5,610C 224.644,605.566 229.477,596.4 225,582.5C 219.681,576.833 213.181,574.999 205.5,577C 187.988,584.195 181.821,597.028 187,615.5C 190.833,626 198,633.167 208.5,637C 224.275,643.073 239.941,642.739 255.5,636C 263.608,632.78 271.274,628.78 278.5,624C 292.661,614.086 306.994,604.419 321.5,595C 359.31,575.154 388.143,583.987 408,621.5C 412.19,629.725 414.523,638.392 415,647.5C 408.151,633.315 398.984,620.815 387.5,610C 371.668,598.51 354.668,596.51 336.5,604C 316.715,614.139 297.715,625.473 279.5,638C 264.44,647.298 248.107,652.465 230.5,653.5C 205.804,653.08 188.304,641.747 178,619.5C 172.293,598.755 178.46,582.589 196.5,571C 200.86,569.417 205.194,568.25 209.5,567.5 Z"/>
	</g>
	<g>
		<path style="opacity:1" fill="#fefffe" d="M 805.5,568.5 C 828.486,566.577 842.319,576.91 847,599.5C 848.83,621.325 839.997,637.158 820.5,647C 805.64,653.813 790.306,655.146 774.5,651C 766.518,648.784 758.851,645.784 751.5,642C 731.095,629.269 710.428,616.935 689.5,605C 661.175,593.886 638.675,601.053 622,626.5C 617.747,633.337 613.747,640.337 610,647.5C 611.823,624.015 622.323,605.515 641.5,592C 654.778,584.282 668.778,582.616 683.5,587C 691.071,589.785 698.405,593.119 705.5,597C 719.34,606.086 733.007,615.419 746.5,625C 760.688,634.766 776.355,639.933 793.5,640.5C 809.784,641.105 822.95,635.105 833,622.5C 842.187,606.127 839.687,591.961 825.5,580C 817.102,575.379 808.769,575.379 800.5,580C 794.723,588.797 795.39,597.13 802.5,605C 805.554,607.194 808.888,608.861 812.5,610C 800.839,613.086 793.006,608.919 789,597.5C 786.784,583.25 792.284,573.583 805.5,568.5 Z"/>
	</g>
	<g>
		<path style="opacity:1" fill="#fefffe" d="M 357.5,618.5 C 374.577,618.952 387.744,626.286 397,640.5C 397.667,641.5 397.667,642.5 397,643.5C 383.638,627.918 367.804,624.418 349.5,633C 340.833,639.667 332.167,646.333 323.5,653C 314.766,659.192 305.433,660.526 295.5,657C 285.969,649.009 286.302,641.343 296.5,634C 307.32,631.422 310.153,635.255 305,645.5C 300.225,649.31 301.058,651.644 307.5,652.5C 311.209,651.812 314.543,650.312 317.5,648C 324.864,640.302 332.53,632.969 340.5,626C 345.782,622.353 351.448,619.853 357.5,618.5 Z"/>
	</g>
	<g>
		<path style="opacity:1" fill="#fefffe" d="M 655.5,619.5 C 667.387,617.741 677.721,620.908 686.5,629C 692.833,635.333 699.167,641.667 705.5,648C 710.82,652.424 716.486,653.09 722.5,650C 717.407,645.983 715.574,640.816 717,634.5C 724.807,631.863 730.474,634.529 734,642.5C 735.805,650.698 732.638,655.865 724.5,658C 714.038,660.385 704.705,658.051 696.5,651C 686.912,642.075 676.245,634.742 664.5,629C 649.473,627.263 636.973,632.096 627,643.5C 627.126,640.902 628.126,638.569 630,636.5C 636.873,628.163 645.373,622.497 655.5,619.5 Z"/>
	</g>
	<g>
		<path style="opacity:1" fill="#fefffe" d="M 449.5,683.5 C 459.889,683.13 470.223,683.63 480.5,685C 503.251,692.667 511.751,708.167 506,731.5C 500.221,743.612 491.388,752.779 479.5,759C 485,763.167 489.833,768 494,773.5C 502.972,786.639 512.139,799.639 521.5,812.5C 533.339,820.91 544.172,819.576 554,808.5C 556.145,804.066 557.478,799.4 558,794.5C 559.126,764.306 560.626,734.139 562.5,704C 561.321,693.992 555.654,689.158 545.5,689.5C 545.36,687.876 546.027,686.71 547.5,686C 573.245,684.133 598.912,685.133 624.5,689C 642.925,691.929 653.925,702.429 657.5,720.5C 656.825,731.024 652.158,739.191 643.5,745C 638.31,747.427 633.31,750.094 628.5,753C 658.784,762.062 666.617,780.562 652,808.5C 640.28,821.023 625.78,827.023 608.5,826.5C 591.089,825.151 573.756,823.151 556.5,820.5C 546.075,821.348 535.742,822.848 525.5,825C 513.487,827.411 503.987,823.578 497,813.5C 486,798.5 475,783.5 464,768.5C 461.137,765.485 457.637,763.651 453.5,763C 448.5,762.333 443.5,762.333 438.5,763C 439.809,778.862 441.642,794.695 444,810.5C 444.883,813.102 446.383,815.269 448.5,817C 452.594,819.198 456.927,820.698 461.5,821.5C 431.591,825.033 401.591,827.867 371.5,830C 365.309,831.038 359.143,832.205 353,833.5C 352.167,833.167 351.333,832.833 350.5,832.5C 358.911,829.124 361.411,823.124 358,814.5C 354.757,807.014 351.257,799.681 347.5,792.5C 344.627,793.775 341.627,794.608 338.5,795C 326.107,796.106 313.774,797.606 301.5,799.5C 300.005,810.123 299.505,820.789 300,831.5C 300.707,833.081 301.54,834.581 302.5,836C 306.813,837.607 311.146,838.94 315.5,840C 301.156,842.393 286.822,845.226 272.5,848.5C 272.167,848.167 271.833,847.833 271.5,847.5C 280.536,840.78 286.036,831.78 288,820.5C 295.825,783.71 302.491,746.71 308,709.5C 309.25,706.829 311.083,704.663 313.5,703C 319.089,701.728 324.589,700.228 330,698.5C 347.804,737.44 366.137,776.106 385,814.5C 390.271,821.633 397.271,825.633 406,826.5C 408.69,824.818 411.523,823.318 414.5,822C 416.317,820.2 417.484,818.034 418,815.5C 416.771,778.752 414.105,742.085 410,705.5C 409.588,701.509 407.754,698.342 404.5,696C 398.652,693.546 392.652,691.879 386.5,691C 407.514,688.259 428.514,685.759 449.5,683.5 Z M 448.5,688.5 C 464.615,687.807 475.115,695.14 480,710.5C 484.754,726.678 480.921,740.178 468.5,751C 459.186,755.614 449.352,758.114 439,758.5C 437.65,740.005 436.484,721.505 435.5,703C 435.955,699.719 436.789,696.552 438,693.5C 441.262,691.145 444.762,689.478 448.5,688.5 Z M 598.5,691.5 C 624.041,689.867 634.541,701.533 630,726.5C 625.442,739.784 616.109,746.451 602,746.5C 595.857,745.716 589.69,745.383 583.5,745.5C 584.493,729.732 586.326,714.066 589,698.5C 589.465,697.069 590.299,695.903 591.5,695C 593.925,693.787 596.259,692.621 598.5,691.5 Z M 314.5,722.5 C 325.438,743.04 335.272,764.04 344,785.5C 330.491,783.252 317.325,784.585 304.5,789.5C 307.62,767.338 310.953,745.005 314.5,722.5 Z M 583.5,749.5 C 595.86,749.62 607.526,752.453 618.5,758C 632.704,770.372 636.538,785.539 630,803.5C 622.152,818.338 609.985,823.838 593.5,820C 587.34,819.171 582.84,816.004 580,810.5C 580.29,790.076 581.456,769.742 583.5,749.5 Z"/>
	</g>
	<g>
		<path style="opacity:1" fill="#fefffe" d="M 679.5,694.5 C 714.457,701.104 749.457,707.27 784.5,713C 780.979,721.243 778.146,729.743 776,738.5C 775.55,741.106 774.05,742.439 771.5,742.5C 774.149,726.93 767.816,717.763 752.5,715C 745.24,713.153 737.906,712.153 730.5,712C 727.055,713.388 724.889,715.888 724,719.5C 720.126,735.036 716.959,750.703 714.5,766.5C 722.466,767.685 730.466,768.685 738.5,769.5C 746.672,769.078 754.005,766.412 760.5,761.5C 760.833,762 761.167,762.5 761.5,763C 757.099,772.665 754.599,782.831 754,793.5C 753.71,795.044 753.044,796.377 752,797.5C 749.91,790.82 746.41,784.987 741.5,780C 732.763,775.311 723.596,771.811 714,769.5C 709.052,787.186 706.718,805.186 707,823.5C 708.167,827.333 710.667,829.833 714.5,831C 724.073,835.262 734.073,836.929 744.5,836C 752.308,833.257 758.975,828.757 764.5,822.5C 764.833,822.833 765.167,823.167 765.5,823.5C 761.209,831.252 756.542,838.752 751.5,846C 749.419,846.869 747.253,847.369 745,847.5C 726.89,843.098 708.724,838.931 690.5,835C 680.896,833.414 671.229,832.414 661.5,832C 666.251,830.246 670.918,828.246 675.5,826C 677.652,823.531 679.152,820.698 680,817.5C 686.44,784.525 692.774,751.525 699,718.5C 700.563,711.52 698.396,706.02 692.5,702C 688.581,700.138 684.581,698.471 680.5,697C 679.748,696.329 679.414,695.496 679.5,694.5 Z"/>
	</g>
	<g>
		<path style="opacity:1" fill="#fefffe" d="M 799.5,719.5 C 824.55,724.429 849.216,730.929 873.5,739C 901.386,749.336 908.886,767.836 896,794.5C 886.882,805.646 875.049,811.979 860.5,813.5C 868.956,833.701 876.123,854.368 882,875.5C 885.176,883.509 891.01,888.342 899.5,890C 899,890.5 898.5,891 898,891.5C 890.445,890.969 882.945,889.802 875.5,888C 866,885.167 859.833,879 857,869.5C 851.949,850.626 846.283,831.959 840,813.5C 835.084,808.923 829.417,805.589 823,803.5C 821.118,804.093 820.118,805.427 820,807.5C 815.947,821.88 812.447,836.38 809.5,851C 809.403,854.638 810.57,857.805 813,860.5C 815.748,862.458 818.582,864.291 821.5,866C 818.442,866.458 815.442,866.124 812.5,865C 797.891,860.515 783.225,856.349 768.5,852.5C 772.907,851.875 777.241,851.042 781.5,850C 783.617,848.269 785.117,846.102 786,843.5C 795.645,808.921 804.978,774.254 814,739.5C 814.121,730.269 809.621,724.436 800.5,722C 799.748,721.329 799.414,720.496 799.5,719.5 Z M 846.5,738.5 C 865.844,738.676 875.844,748.51 876.5,768C 875.928,782.83 869.261,793.83 856.5,801C 844.943,804.197 833.61,803.364 822.5,798.5C 828.104,779.186 834.604,760.186 842,741.5C 843.409,740.219 844.909,739.219 846.5,738.5 Z"/>
	</g>
	<g>
		<path style="opacity:1" fill="#fefffe" d="M 195.5,724.5 C 208.616,722.746 220.116,726.079 230,734.5C 238.619,747.139 238.619,759.805 230,772.5C 226.318,776.015 222.818,779.682 219.5,783.5C 249.062,782.232 263.562,796.232 263,825.5C 259.285,838.877 251.451,849.044 239.5,856C 233.321,858.727 226.987,861.06 220.5,863C 201.69,866.127 183.357,870.96 165.5,877.5C 164.833,877.333 164.167,877.167 163.5,877C 171.419,871.99 174.586,864.823 173,855.5C 163.876,821.002 153.21,787.002 141,753.5C 139.745,752.789 138.579,751.956 137.5,751C 131.86,749.755 126.193,749.255 120.5,749.5C 144.636,738.566 169.636,730.233 195.5,724.5 Z M 184.5,731.5 C 196.981,730.65 205.481,735.983 210,747.5C 216.102,765.45 210.602,778.283 193.5,786C 189,787.5 184.5,789 180,790.5C 179.055,790.095 178.388,789.428 178,788.5C 173.419,774.43 169.919,760.096 167.5,745.5C 167.446,741.442 169.112,738.276 172.5,736C 176.432,733.972 180.432,732.472 184.5,731.5 Z M 195.5,790.5 C 220.882,788.051 235.715,799.384 240,824.5C 242.72,843.236 234.886,854.736 216.5,859C 208.819,861.001 202.319,859.167 197,853.5C 191.239,834.282 185.405,815.115 179.5,796C 184.798,793.848 190.131,792.015 195.5,790.5 Z"/>
	</g>
	<g>
		<path style="opacity:1" fill="#fefffe" d="M 456.5,882.5 C 470.843,881.29 483.676,884.957 495,893.5C 505.463,911.199 502.963,927.032 487.5,941C 475.944,949.741 462.944,954.074 448.5,954C 446.485,952.445 446.152,950.611 447.5,948.5C 466.466,944.533 478.132,933.199 482.5,914.5C 480.478,902.16 473.145,896.493 460.5,897.5C 444.952,898.941 431.285,904.774 419.5,915C 388.769,945.817 372.435,983.15 370.5,1027C 370.446,1039.4 372.946,1051.23 378,1062.5C 387.668,1078.17 401.501,1083.67 419.5,1079C 429.394,1075.1 437.56,1068.94 444,1060.5C 454.008,1045.65 460.175,1029.31 462.5,1011.5C 461.5,1011.17 460.5,1010.83 459.5,1010.5C 450.291,1011.74 441.291,1013.74 432.5,1016.5C 432.486,1011.05 434.152,1006.21 437.5,1002C 458.742,992.299 480.909,989.132 504,992.5C 504.802,1000.06 501.635,1005.22 494.5,1008C 489.844,1008.67 485.177,1009.17 480.5,1009.5C 478.29,1040.43 463.956,1063.93 437.5,1080C 415.158,1094.43 392.492,1095.09 369.5,1082C 356.748,1071.88 348.915,1058.71 346,1042.5C 342.176,984.652 363.009,937.819 408.5,902C 422.896,891.294 438.896,884.794 456.5,882.5 Z"/>
	</g>
	<g>
		<path style="opacity:1" fill="#fefffe" d="M 607.5,882.5 C 632.732,879.037 651.899,888.037 665,909.5C 670.504,920.178 673.837,931.511 675,943.5C 679.369,996.243 661.536,1039.74 621.5,1074C 600.243,1088.82 576.91,1093.82 551.5,1089C 532.929,1084.1 520.429,1072.6 514,1054.5C 508.308,1033.55 508.308,1012.55 514,991.5C 522.863,957.336 540.03,928.169 565.5,904C 577.773,893.364 591.773,886.197 607.5,882.5 Z M 612.5,894.5 C 632.09,894.917 644.59,904.583 650,923.5C 654.701,963.293 648.368,1001.29 631,1037.5C 622.084,1056.08 608.251,1069.58 589.5,1078C 562.047,1085.19 544.88,1075.02 538,1047.5C 531.528,999.384 542.861,956.051 572,917.5C 582.76,904.711 596.26,897.044 612.5,894.5 Z"/>
	</g>
	<g>
		<path style="opacity:1" fill="#fefffe" d="M 605.5,906.5 C 609.182,906.335 612.848,906.501 616.5,907C 617.554,908.388 617.72,909.888 617,911.5C 604.067,917.636 592.734,925.969 583,936.5C 580.089,939.99 577.422,943.656 575,947.5C 570.373,957.749 566.04,968.082 562,978.5C 559.36,952.732 567.86,931.566 587.5,915C 593.208,911.31 599.208,908.477 605.5,906.5 Z"/>
	</g>
	<g>
		<path style="opacity:1" fill="#fefffe" d="M 107.5,935.5 C 122.983,933.935 135.816,938.935 146,950.5C 153.499,964.765 151.666,977.598 140.5,989C 129.189,996.052 119.356,994.552 111,984.5C 109.632,981.262 109.299,977.928 110,974.5C 117.433,987.324 126.433,988.657 137,978.5C 142.051,961.503 135.884,950.67 118.5,946C 96.2505,944.244 84.5839,954.578 83.5,977C 85.7438,1000.16 98.0771,1014.82 120.5,1021C 145.938,1026.19 168.938,1020.85 189.5,1005C 201.127,995.708 212.461,986.041 223.5,976C 235.946,964.942 250.279,957.275 266.5,953C 282.604,953.424 293.437,961.258 299,976.5C 299.965,981.105 300.299,985.439 300,989.5C 287.256,960.182 268.09,955.349 242.5,975C 227.394,990.445 211.394,1004.78 194.5,1018C 178.318,1029.45 160.318,1035.62 140.5,1036.5C 118.561,1036.28 100.061,1028.28 85,1012.5C 69.1633,991.642 68.4967,970.309 83,948.5C 89.9183,941.626 98.0849,937.293 107.5,935.5 Z"/>
	</g>
	<g>
		<path style="opacity:1" fill="#fefffe" d="M 903.5,935.5 C 933.071,934.903 948.738,949.403 950.5,979C 949.86,999.947 940.526,1015.61 922.5,1026C 890.509,1041.74 859.842,1039.41 830.5,1019C 813.606,1005.78 797.606,991.445 782.5,976C 757.732,955.019 738.565,959.186 725,988.5C 724.877,967.789 735.044,955.789 755.5,952.5C 764.463,953.988 772.797,957.155 780.5,962C 797.035,973.529 812.702,986.196 827.5,1000C 843.818,1014.17 862.818,1022 884.5,1023.5C 901.671,1023.61 916.504,1017.95 929,1006.5C 942.093,990.321 943.426,973.321 933,955.5C 922.375,944.834 910.209,942.668 896.5,949C 881.652,959.478 880.319,971.145 892.5,984C 902.623,986.857 909.789,983.357 914,973.5C 914.494,985.515 908.661,992.182 896.5,993.5C 881.751,990.912 873.751,982.079 872.5,967C 875.612,949.388 885.945,938.888 903.5,935.5 Z"/>
	</g>
	<g>
		<path style="opacity:1" fill="#fefffe" d="M 267.5,980.5 C 274.491,980.035 280.324,982.368 285,987.5C 288.846,998.139 285.179,1004.47 274,1006.5C 272.775,1006.14 271.609,1005.64 270.5,1005C 275.607,1003.26 278.107,999.764 278,994.5C 274.544,990.262 270.378,989.429 265.5,992C 251.5,1004 237.5,1016 223.5,1028C 207.304,1040.43 188.971,1047.26 168.5,1048.5C 161.175,1048.43 154.175,1046.93 147.5,1044C 174.122,1041.91 197.789,1032.58 218.5,1016C 230.5,1006 242.5,996 254.5,986C 258.717,983.549 263.05,981.715 267.5,980.5 Z"/>
	</g>
	<g>
		<path style="opacity:1" fill="#fefffe" d="M 751.5,980.5 C 759.798,980.876 767.132,983.71 773.5,989C 788.922,1003.2 805.255,1016.2 822.5,1028C 839.181,1037.78 857.181,1043.12 876.5,1044C 859.775,1049.97 843.108,1049.64 826.5,1043C 812.991,1037.09 800.658,1029.42 789.5,1020C 780.5,1011.67 771.5,1003.33 762.5,995C 757.996,991.043 752.996,990.043 747.5,992C 744.496,997.847 746.162,1002.01 752.5,1004.5C 745.904,1006.79 741.071,1004.79 738,998.5C 736.646,988.029 741.146,982.029 751.5,980.5 Z"/>
	</g>
	<g>
		<path style="opacity:1" fill="#fefffe" d="M 211.5,1101.5 C 219.827,1102.89 227.827,1105.39 235.5,1109C 245.327,1114.08 254.994,1119.41 264.5,1125C 288.188,1141.51 311.521,1158.51 334.5,1176C 344.666,1178.92 354.833,1181.75 365,1184.5C 377.029,1174.98 390.029,1166.98 404,1160.5C 403.248,1155.9 402.415,1151.23 401.5,1146.5C 403.713,1132.78 411.713,1126.28 425.5,1127C 438.883,1130.24 444.383,1138.74 442,1152.5C 439.354,1159.81 434.188,1164.31 426.5,1166C 404.458,1167.85 385.458,1176.52 369.5,1192C 358.894,1194.66 348.227,1196.66 337.5,1198C 301.551,1187.91 266.551,1175.24 232.5,1160C 222.624,1154.9 213.624,1148.56 205.5,1141C 206,1140.83 206.5,1140.67 207,1140.5C 236.993,1149.5 266.826,1158.67 296.5,1168C 271.526,1148.18 246.193,1128.85 220.5,1110C 216.969,1107.6 213.969,1104.76 211.5,1101.5 Z M 418.5,1134.5 C 431.991,1134.13 436.824,1140.46 433,1153.5C 428.362,1159.54 422.529,1161.04 415.5,1158C 406.988,1148.91 407.988,1141.08 418.5,1134.5 Z M 332.5,1183.5 C 337.672,1182.56 339.839,1184.56 339,1189.5C 332.684,1192.36 330.518,1190.36 332.5,1183.5 Z"/>
	</g>
	<g>
		<path style="opacity:1" fill="#fefffe" d="M 821.5,1101.5 C 822.978,1101.24 824.311,1101.57 825.5,1102.5C 797.309,1124.52 768.976,1146.36 740.5,1168C 771.311,1158.23 802.311,1148.73 833.5,1139.5C 834.167,1139.67 834.833,1139.83 835.5,1140C 820.734,1152.72 804.068,1162.39 785.5,1169C 756.533,1180.32 727.2,1190.66 697.5,1200C 686.009,1208.58 674.343,1216.91 662.5,1225C 663.878,1241.62 656.211,1249.96 639.5,1250C 633.638,1247.91 628.304,1245.07 623.5,1241.5C 614.735,1243.09 608.401,1247.93 604.5,1256C 599.917,1256.93 598.417,1255.1 600,1250.5C 605.011,1241.16 612.677,1235.16 623,1232.5C 625.824,1211.36 636.99,1205.19 656.5,1214C 658.167,1214.67 659.833,1214.67 661.5,1214C 670.372,1208.39 678.706,1202.06 686.5,1195C 683.377,1194.79 680.377,1194.13 677.5,1193C 665.217,1179.74 650.217,1171.07 632.5,1167C 616.499,1169.31 606.833,1162.65 603.5,1147C 607.468,1128.7 618.134,1123.03 635.5,1130C 645,1138.48 647,1148.48 641.5,1160C 648.414,1162.79 655.081,1166.12 661.5,1170C 667.662,1174.01 673.662,1178.17 679.5,1182.5C 687.407,1181.11 695.074,1178.94 702.5,1176C 733.608,1151.27 766.608,1129.27 801.5,1110C 808.14,1106.84 814.807,1104.01 821.5,1101.5 Z M 619.5,1133.5 C 632.13,1132.3 637.964,1137.96 637,1150.5C 632.357,1160.46 625.19,1162.62 615.5,1157C 610.38,1150.3 610.213,1143.46 615,1136.5C 616.652,1135.6 618.152,1134.6 619.5,1133.5 Z M 702.5,1182.5 C 708.928,1185.26 709.095,1188.26 703,1191.5C 700.709,1190.88 699.543,1189.38 699.5,1187C 699.557,1184.79 700.557,1183.29 702.5,1182.5 Z M 638.5,1216.5 C 653.218,1216.59 658.051,1223.59 653,1237.5C 646.333,1244.17 639.667,1244.17 633,1237.5C 628.464,1228.65 630.298,1221.65 638.5,1216.5 Z"/>
	</g>
	<g>
		<path style="opacity:1" fill="#fefffe" d="M 349.5,1198.5 C 351.527,1198.34 353.527,1198.5 355.5,1199C 365.284,1206.48 376.117,1211.98 388,1215.5C 405.606,1205.56 417.772,1210.06 424.5,1229C 436.33,1231.67 444.663,1238.5 449.5,1249.5C 448.814,1253 446.814,1254.16 443.5,1253C 439.177,1243.98 432.177,1238.98 422.5,1238C 412.127,1252.4 400.294,1253.9 387,1242.5C 384.256,1236.62 382.756,1230.45 382.5,1224C 366.831,1218.67 352.497,1211 339.5,1201C 343.038,1200.47 346.372,1199.63 349.5,1198.5 Z M 399.5,1217.5 C 413.222,1217.94 417.722,1224.61 413,1237.5C 405.259,1244.63 398.259,1243.97 392,1235.5C 388.968,1227.08 391.468,1221.08 399.5,1217.5 Z"/>
	</g>
</svg>
